<?xml version="1.0" standalone="no"?><!DOCTYPE svg PUBLIC "-//W3C//DTD SVG 1.1//EN" "http://www.w3.org/Graphics/SVG/1.1/DTD/svg11.dtd"><svg class="icon" height="512" viewBox="0 0 1024 1024" version="1.1" xmlns="http://www.w3.org/2000/svg"><path d="M362.666667 42.666667 160 245.333333l0 736 704 0L864 42.666667 362.666667 42.666667zM810.666667 928 213.333333 928 213.333333 245.333333l149.333333 0L362.666667 96l448 0L810.666667 928zM277.333333 725.333333l469.333333 0 0 21.333333-469.333333 0 0-21.333333ZM617.834667 442.816c-6.314667-7.68-10.88-19.701333-13.376-36.053333l-32.448 5.749333c1.184 15.797333 5.429333 29.162667 12.757333 40.128 7.338667 10.933333 16.277333 18.88 26.368 23.776C621.216 481.322667 640 484.736 650.666667 486.656L650.666667 512l21.333333 0 0-25.674667c21.333333-1.024 39.456-8.586667 53.642667-22.688s20.565333-31.712 20.565333-52.810667c0-9.589333-2.442667-18.506667-5.834667-26.752s-8.245333-15.349333-14.581333-21.333333c-6.314667-5.984-13.024-11.061333-23.04-15.232C697.504 345.365333 682.666667 342.378667 672 338.538667l0-87.850667c10.666667 2.026667 17.290667 6.229333 23.317333 12.608 6.037333 6.378667 9.269333 15.552 11.189333 27.509333l32.906667-4.736c-2.88-19.296-10.069333-34.474667-24.138667-45.536C704.288 231.84 693.333333 226.645333 672 224.949333L672 213.333333l-21.333333 0 0 11.616c-21.333333 2.026667-37.728 7.562667-48.586667 16.586667-16.224 13.429333-24.458667 30.976-24.458667 52.650667 0 12.192 2.698667 23.082667 8.256 32.661333 5.546667 9.589333 13.674667 17.098667 23.925333 22.517333 13.834667 7.338667 30.186667 12.181333 40.853333 14.56l0 97.002667C640 459.68 626.890667 453.642667 617.834667 442.816zM672 368.16c21.333333 5.312 27.370667 11.317333 33.162667 18.026667 5.770667 6.72 8.661333 15.605333 8.661333 26.656 0 12.981333-4.085333 23.872-12.245333 32.672S682.666667 459.456 672 460.928L672 368.16zM619.168 317.888c-6.122667-6.997333-9.333333-15.690667-9.333333-26.069333 0-10.496 3.776-19.573333 11.008-27.253333C628.074667 256.885333 640 252.149333 650.666667 250.346667l0 84.298667C640 330.464 625.312 324.885333 619.168 317.888zM277.333333 608l469.333333 0 0 21.333333-469.333333 0 0-21.333333ZM277.333333 490.666667l245.333333 0 0 21.333333-245.333333 0 0-21.333333ZM277.333333 373.333333l245.333333 0 0 21.333333-245.333333 0 0-21.333333Z" /></svg>